<svg width="25" height="23" viewBox="0 0 25 23" fill="none" xmlns="http://www.w3.org/2000/svg">
<path d="M5 23L6.875 17.6094C7.0625 17.0583 7.36458 16.6209 7.78125 16.2969C8.19792 15.973 8.66667 15.8115 9.1875 15.8125H11.25V10.0266C8.0625 9.90677 5.39042 9.36771 3.23375 8.40938C1.07708 7.45104 -0.000832851 6.325 4.82812e-07 5.03125C4.82812e-07 3.64167 1.21875 2.45573 3.65625 1.47344C6.09375 0.491146 9.04167 0 12.5 0C15.9792 0 18.9325 0.491146 21.36 1.47344C23.7875 2.45573 25.0008 3.64167 25 5.03125C25 6.325 23.9217 7.45104 21.765 8.40938C19.6083 9.36771 16.9367 9.90677 13.75 10.0266V15.8125H15.8125C16.3125 15.8125 16.7762 15.9745 17.2037 16.2984C17.6312 16.6223 17.9383 17.0593 18.125 17.6094L20 23H17.5L16 18.6875H9L7.5 23H5Z" fill="#545454"/>
</svg>
