<svg width="23" height="21" viewBox="0 0 23 21" fill="none" xmlns="http://www.w3.org/2000/svg">
<path d="M4.6 21L6.325 16.0781C6.4975 15.575 6.77542 15.1756 7.15875 14.8798C7.54208 14.5841 7.97333 14.4366 8.4525 14.4375H10.35V9.15469C7.4175 9.04531 4.95918 8.55313 2.97505 7.67813C0.990917 6.80313 -0.000766222 5.775 4.44187e-07 4.59375C4.44187e-07 3.325 1.12125 2.24219 3.36375 1.34531C5.60625 0.448438 8.31833 0 11.5 0C14.7008 0 17.4179 0.448438 19.6512 1.34531C21.8845 2.24219 23.0008 3.325 23 4.59375C23 5.775 22.0079 6.80313 20.0238 7.67813C18.0397 8.55313 15.5817 9.04531 12.65 9.15469V14.4375H14.5475C15.0075 14.4375 15.4341 14.5854 15.8274 14.8811C16.2207 15.1769 16.5033 15.5759 16.675 16.0781L18.4 21H16.1L14.72 17.0625H8.28L6.9 21H4.6Z" fill="white"/>
</svg>
