<svg width="18" height="18" viewBox="0 0 18 18" fill="none" xmlns="http://www.w3.org/2000/svg">
<path d="M14.1125 1.09187C12.4557 1.08017 11.1031 2.41379 11.0914 4.0706C11.0797 5.72742 12.4133 7.08002 14.0701 7.09172C15.727 7.10343 17.0796 5.7698 17.0913 4.11299C17.103 2.45618 15.7693 1.10358 14.1125 1.09187Z" stroke="#545454" stroke-linecap="round"/>
<path d="M16.0737 6.60583L16.0137 15.1056C16.0099 15.636 15.7956 16.1432 15.4179 16.5157C15.0402 16.8881 14.53 17.0952 13.9996 17.0914C13.4692 17.0877 12.962 16.8734 12.5896 16.4957C12.2172 16.118 12.01 15.6078 12.0138 15.0774L12.0738 6.57758" stroke="#545454" stroke-linecap="round"/>
<path d="M3.99993 17.0208C2.34311 17.0091 1.00949 15.6565 1.02119 13.9997C1.0329 12.3428 2.3855 11.0092 4.04231 11.0209C5.69912 11.0326 7.03275 12.3852 7.02104 14.042C7.00934 15.6989 5.65674 17.0325 3.99993 17.0208Z" stroke="#545454" stroke-linecap="round"/>
<path d="M6.03862 11.535L6.09866 3.03523C6.10241 2.50481 5.8953 1.99462 5.52288 1.61691C5.15047 1.2392 4.64326 1.0249 4.11284 1.02115C3.58242 1.0174 3.07224 1.22452 2.69453 1.59693C2.31681 1.96934 2.10251 2.47655 2.09876 3.00697L2.03872 11.5068" stroke="#545454" stroke-linecap="round"/>
</svg>
