<svg width="23" height="20" viewBox="0 0 23 20" fill="none" xmlns="http://www.w3.org/2000/svg">
<path d="M23 6.45986C23 13.7532 12.343 19.6567 11.8892 19.9005C11.7695 19.9658 11.6358 20 11.5 20C11.3642 20 11.2305 19.9658 11.1108 19.9005C10.657 19.6567 0 13.7532 0 6.45986C0.00190236 4.74719 0.673223 3.10522 1.86668 1.89418C3.06014 0.683141 4.67827 0.00193039 6.36607 0C8.48638 0 10.3428 0.925218 11.5 2.48913C12.6572 0.925218 14.5136 0 16.6339 0C18.3217 0.00193039 19.9399 0.683141 21.1333 1.89418C22.3268 3.10522 22.9981 4.74719 23 6.45986Z" fill="#FFA1A1"/>
</svg>
