<svg width="34" height="33" viewBox="0 0 34 33" fill="none" xmlns="http://www.w3.org/2000/svg">
<path d="M15.132 1.88442C15.7875 0.170331 18.2125 0.170327 18.868 1.88442L21.7174 9.33465C21.995 10.0606 22.6681 10.56 23.4434 10.6152L31.2441 11.1705C33.0159 11.2967 33.7563 13.4976 32.421 14.6689L26.2765 20.0595C25.7185 20.5489 25.4775 21.3071 25.6505 22.0289L27.5767 30.0686C27.9993 31.8321 26.0451 33.2025 24.531 32.2044L18.1008 27.9656C17.4329 27.5254 16.5671 27.5254 15.8992 27.9656L9.46897 32.2045C7.95494 33.2025 6.00075 31.8321 6.42327 30.0686L8.34952 22.0289C8.52245 21.3071 8.28146 20.5489 7.72352 20.0595L1.57897 14.6689C0.243733 13.4976 0.984144 11.2967 2.75588 11.1705L10.5566 10.6152C11.3319 10.56 12.005 10.0606 12.2826 9.33465L15.132 1.88442Z" fill="#D9D9D9"/>
</svg>
