<svg width="23" height="20" viewBox="0 0 23 20" fill="none" xmlns="http://www.w3.org/2000/svg">
<path d="M16.6339 0C14.5136 0 12.6572 0.925218 11.5 2.48913C10.3428 0.925218 8.48638 0 6.36607 0C4.67827 0.00193039 3.06014 0.683141 1.86668 1.89418C0.673223 3.10522 0.00190236 4.74719 0 6.45986C0 13.7532 10.657 19.6567 11.1108 19.9005C11.2305 19.9658 11.3642 20 11.5 20C11.6358 20 11.7695 19.9658 11.8892 19.9005C12.343 19.6567 23 13.7532 23 6.45986C22.9981 4.74719 22.3268 3.10522 21.1333 1.89418C19.9399 0.683141 18.3217 0.00193039 16.6339 0ZM11.5 18.2126C9.62509 17.104 1.64286 12.0539 1.64286 6.45986C1.64449 5.18924 2.14263 3.97113 3.02806 3.07266C3.91348 2.1742 5.1139 1.66871 6.36607 1.66706C8.36317 1.66706 10.0399 2.74648 10.7402 4.48022C10.8021 4.6331 10.9073 4.76386 11.0426 4.85588C11.1779 4.94791 11.3371 4.99704 11.5 4.99704C11.6629 4.99704 11.8221 4.94791 11.9574 4.85588C12.0927 4.76386 12.1979 4.6331 12.2598 4.48022C12.9601 2.74336 14.6368 1.66706 16.6339 1.66706C17.8861 1.66871 19.0865 2.1742 19.9719 3.07266C20.8574 3.97113 21.3555 5.18924 21.3571 6.45986C21.3571 12.0455 13.3729 17.103 11.5 18.2126Z" fill="black"/>
</svg>
