<svg width="80" height="70" viewBox="0 0 80 70" fill="none" xmlns="http://www.w3.org/2000/svg">
<path d="M80 22.6095C80 48.1364 42.9321 68.7985 41.3536 69.6518C40.9375 69.8804 40.4724 70 40 70C39.5276 70 39.0625 69.8804 38.6464 69.6518C37.0679 68.7985 0 48.1364 0 22.6095C0.00661692 16.6152 2.34164 10.8683 6.4928 6.62963C10.644 2.39099 16.2722 0.00675636 22.1429 0C29.5179 0 35.975 3.23826 40 8.71195C44.025 3.23826 50.4821 0 57.8571 0C63.7278 0.00675636 69.356 2.39099 73.5072 6.62963C77.6584 10.8683 79.9934 16.6152 80 22.6095Z" fill="#FFB6B5"/>
<path d="M32.4211 19C31.1323 18.9999 29.8922 19.4923 28.9545 20.3765C28.0168 21.2606 27.4524 22.4697 27.3768 23.7562L27.3684 24.0526V40.8947H26.1053C25.0156 40.8947 24.1179 41.7234 24.0101 42.7844L24 43V45.9474C23.9999 47.2361 24.4923 48.4762 25.3765 49.4139C26.2606 50.3516 27.4697 50.916 28.7562 50.9916L29.0526 51H45.8947C47.1835 51.0001 48.4236 50.5077 49.3613 49.6235C50.299 48.7394 50.8633 47.5303 50.9389 46.2438L50.9474 45.9474V29.1053H53.8947C54.4159 29.1055 54.9187 28.9124 55.3057 28.5633C55.6927 28.2143 55.9365 27.734 55.9899 27.2156L56 27V24.0526C56.0001 22.7639 55.5077 21.5238 54.6235 20.5861C53.7394 19.6484 52.5303 19.084 51.2438 19.0084L50.9474 19H32.4211ZM32.4211 22.3684H47.5789V45.9474C47.5789 46.394 47.4015 46.8224 47.0857 47.1383C46.7698 47.4541 46.3414 47.6316 45.8947 47.6316C45.4481 47.6316 45.0197 47.4541 44.7038 47.1383C44.388 46.8224 44.2105 46.394 44.2105 45.9474V43C44.2105 41.8379 43.2674 40.8947 42.1053 40.8947H30.7368V24.0526C30.7368 23.606 30.9143 23.1776 31.2301 22.8617C31.546 22.5459 31.9744 22.3684 32.4211 22.3684ZM27.3684 44.2632H40.8421V45.9474C40.8421 46.5368 40.9432 47.1044 41.1284 47.6316H29.0526C28.606 47.6316 28.1776 47.4541 27.8617 47.1383C27.5459 46.8224 27.3684 46.394 27.3684 45.9474V44.2632ZM39.1579 34.1579C38.7112 34.1579 38.2828 34.3353 37.967 34.6512C37.6511 34.967 37.4737 35.3954 37.4737 35.8421C37.4737 36.2888 37.6511 36.7172 37.967 37.033C38.2828 37.3489 38.7112 37.5263 39.1579 37.5263H42.5263C42.973 37.5263 43.4014 37.3489 43.7172 37.033C44.0331 36.7172 44.2105 36.2888 44.2105 35.8421C44.2105 35.3954 44.0331 34.967 43.7172 34.6512C43.4014 34.3353 42.973 34.1579 42.5263 34.1579H39.1579ZM35.7895 27.4211C35.3428 27.4211 34.9144 27.5985 34.5986 27.9143C34.2827 28.2302 34.1053 28.6586 34.1053 29.1053C34.1053 29.5519 34.2827 29.9803 34.5986 30.2962C34.9144 30.612 35.3428 30.7895 35.7895 30.7895H42.5263C42.973 30.7895 43.4014 30.612 43.7172 30.2962C44.0331 29.9803 44.2105 29.5519 44.2105 29.1053C44.2105 28.6586 44.0331 28.2302 43.7172 27.9143C43.4014 27.5985 42.973 27.4211 42.5263 27.4211H35.7895ZM50.9474 22.3684C51.3599 22.3685 51.758 22.5199 52.0663 22.794C52.3746 23.0682 52.5715 23.4459 52.6198 23.8556L52.6316 24.0526V25.7368H50.9474V22.3684Z" fill="#797979"/>
</svg>
