<svg width="80" height="70" viewBox="0 0 80 70" fill="none" xmlns="http://www.w3.org/2000/svg">
<path d="M80 22.6095C80 48.1364 42.9321 68.7985 41.3536 69.6518C40.9375 69.8804 40.4724 70 40 70C39.5276 70 39.0625 69.8804 38.6464 69.6518C37.0679 68.7985 0 48.1364 0 22.6095C0.00661692 16.6152 2.34164 10.8683 6.4928 6.62963C10.644 2.39099 16.2722 0.00675636 22.1429 0C29.5179 0 35.975 3.23826 40 8.71195C44.025 3.23826 50.4821 0 57.8571 0C63.7278 0.00675636 69.356 2.39099 73.5072 6.62963C77.6584 10.8683 79.9934 16.6152 80 22.6095Z" fill="#FFB6B5"/>
<path d="M33 26.4444L29.8889 23.2222H50.1111L47 26.4444M38.4444 36.1111V45.7778H30.6667V49H49.3333V45.7778H41.5556V36.1111L54 23.2222V20H26V23.2222L38.4444 36.1111Z" fill="#797979"/>
</svg>
