<svg width="11" height="22" viewBox="0 0 11 22" fill="none" xmlns="http://www.w3.org/2000/svg">
<path d="M10.2273 1.77156C10.3176 1.67132 10.3881 1.5534 10.4349 1.42454C10.4817 1.29568 10.5039 1.1584 10.5002 1.02053C10.4965 0.882671 10.4669 0.746926 10.4133 0.621049C10.3596 0.495173 10.2828 0.38163 10.1873 0.286904C10.0919 0.192177 9.97956 0.118122 9.85684 0.0689675C9.73411 0.0198126 9.60336 -0.00347996 9.47206 0.00041999C9.34076 0.00431994 9.21147 0.0353359 9.09159 0.091697C8.9717 0.148058 8.86356 0.228661 8.77334 0.328902L0.273343 9.77864C0.0978063 9.97359 0 10.2317 0 10.5C0 10.7682 0.0978063 11.0264 0.273343 11.2213L8.77334 20.6721C8.86296 20.7745 8.97108 20.8572 9.09141 20.9154C9.21173 20.9736 9.34187 21.0061 9.47427 21.0111C9.60666 21.016 9.73867 20.9933 9.86263 20.9442C9.98659 20.8951 10.1 20.8207 10.1963 20.7252C10.2927 20.6297 10.3699 20.515 10.4237 20.3879C10.4775 20.2608 10.5067 20.1237 10.5095 19.9846C10.5124 19.8456 10.489 19.7073 10.4405 19.5778C10.3921 19.4484 10.3196 19.3303 10.2273 19.2305L2.37534 10.5L10.2273 1.77156Z" fill="black"/>
</svg>
