<svg width="29" height="29" viewBox="0 0 29 29" fill="none" xmlns="http://www.w3.org/2000/svg">
<path d="M9.66683 3.625C8.7422 3.62495 7.8525 3.97823 7.17976 4.61255C6.50703 5.24688 6.10211 6.1143 6.04787 7.03733L6.04183 7.25V19.3333H5.13558C4.35379 19.3333 3.70975 19.9278 3.63241 20.6891L3.62516 20.8438V22.9583C3.62511 23.883 3.97839 24.7727 4.61271 25.4454C5.24704 26.1181 6.11446 26.523 7.03749 26.5773L7.25016 26.5833H19.3335C20.2581 26.5834 21.1478 26.2301 21.8206 25.5958C22.4933 24.9615 22.8982 24.094 22.9525 23.171L22.9585 22.9583V10.875H25.0731C25.447 10.8752 25.8077 10.7366 26.0854 10.4862C26.3631 10.2357 26.538 9.89121 26.5762 9.51925L26.5835 9.36458V7.25C26.5835 6.32537 26.2303 5.43567 25.5959 4.76293C24.9616 4.0902 24.0942 3.68529 23.1712 3.63104L22.9585 3.625H9.66683ZM9.66683 6.04167H20.5418V22.9583C20.5418 23.2788 20.4145 23.5861 20.1879 23.8128C19.9613 24.0394 19.654 24.1667 19.3335 24.1667C19.013 24.1667 18.7057 24.0394 18.4791 23.8128C18.2525 23.5861 18.1252 23.2788 18.1252 22.9583V20.8438C18.1252 20.01 17.4485 19.3333 16.6147 19.3333H8.4585V7.25C8.4585 6.92953 8.5858 6.62219 8.81241 6.39558C9.03901 6.16897 9.34636 6.04167 9.66683 6.04167ZM6.04183 21.75H15.7085V22.9583C15.7085 23.3813 15.781 23.7885 15.9139 24.1667H7.25016C6.92969 24.1667 6.62235 24.0394 6.39574 23.8128C6.16913 23.5861 6.04183 23.2788 6.04183 22.9583V21.75ZM14.5002 14.5C14.1797 14.5 13.8723 14.6273 13.6457 14.8539C13.4191 15.0805 13.2918 15.3879 13.2918 15.7083C13.2918 16.0288 13.4191 16.3361 13.6457 16.5628C13.8723 16.7894 14.1797 16.9167 14.5002 16.9167H16.9168C17.2373 16.9167 17.5446 16.7894 17.7712 16.5628C17.9979 16.3361 18.1252 16.0288 18.1252 15.7083C18.1252 15.3879 17.9979 15.0805 17.7712 14.8539C17.5446 14.6273 17.2373 14.5 16.9168 14.5H14.5002ZM12.0835 9.66667C11.763 9.66667 11.4557 9.79397 11.2291 10.0206C11.0025 10.2472 10.8752 10.5545 10.8752 10.875C10.8752 11.1955 11.0025 11.5028 11.2291 11.7294C11.4557 11.956 11.763 12.0833 12.0835 12.0833H16.9168C17.2373 12.0833 17.5446 11.956 17.7712 11.7294C17.9979 11.5028 18.1252 11.1955 18.1252 10.875C18.1252 10.5545 17.9979 10.2472 17.7712 10.0206C17.5446 9.79397 17.2373 9.66667 16.9168 9.66667H12.0835ZM22.9585 6.04167C23.2545 6.04171 23.5401 6.15036 23.7613 6.34703C23.9824 6.5437 24.1237 6.8147 24.1584 7.10862L24.1668 7.25V8.45833H22.9585V6.04167Z" fill="white"/>
</svg>
