<svg width="21" height="24" viewBox="0 0 21 24" fill="none" xmlns="http://www.w3.org/2000/svg">
<path d="M4.77746 15.8047C5.23622 15.8054 5.67874 15.7129 6.09836 15.5283C6.32157 15.4301 6.53267 15.3114 6.73131 15.173L12.3771 18.7339C12.3666 18.8475 12.3611 18.9601 12.3611 19.0715C12.3611 20.0864 12.6952 20.9821 13.3699 21.7139C14.0468 22.448 14.9002 22.8342 15.8889 22.8342C16.8776 22.8342 17.731 22.448 18.4079 21.7139C19.0826 20.9821 19.4167 20.0864 19.4167 19.0715C19.4167 18.0567 19.0826 17.1609 18.4079 16.4292C17.731 15.6951 16.8776 15.3089 15.8889 15.3089L15.8875 15.3089C15.4298 15.3098 14.9883 15.4024 14.5695 15.5858C14.3459 15.6837 14.1344 15.8023 13.9355 15.9407L8.28957 12.3797C8.3001 12.2661 8.30556 12.1535 8.30556 12.0421C8.30556 11.9307 8.30007 11.8182 8.28949 11.7045L13.935 8.14377C14.134 8.28255 14.3457 8.40133 14.5695 8.49936C14.9888 8.68297 15.4307 8.77525 15.8889 8.77525C16.8776 8.77525 17.731 8.38906 18.4079 7.65497C19.0826 6.92321 19.4167 6.02745 19.4167 5.01262C19.4167 3.99779 19.0826 3.10204 18.4079 2.37028C17.731 1.63619 16.8776 1.25 15.8889 1.25C14.9002 1.25 14.0468 1.63619 13.3699 2.37028C12.6952 3.10204 12.3611 3.99779 12.3611 5.01262C12.3611 5.1243 12.3665 5.23688 12.3771 5.35024L6.73078 8.9115C6.53226 8.77342 6.32134 8.65498 6.09836 8.55687C5.67885 8.37228 5.23645 8.27945 4.77778 8.27945C3.78908 8.27945 2.93567 8.66564 2.2588 9.39973C1.58408 10.1315 1.25 11.0272 1.25 12.0421C1.25 13.0569 1.58408 13.9527 2.2588 14.6844C2.93559 15.4184 3.7889 15.8046 4.77746 15.8047ZM4.77746 15.8047C4.7771 15.8047 4.77673 15.8047 4.77636 15.8047L4.77778 15.0548V15.8047C4.77767 15.8047 4.77757 15.8047 4.77746 15.8047Z" stroke="black" stroke-width="1.5"/>
</svg>
