<svg width="9" height="9" viewBox="0 0 9 9" fill="none" xmlns="http://www.w3.org/2000/svg">
<path d="M7.39263 0.964258C7.32835 0.964258 7.26808 0.972292 7.21385 0.99037C6.83017 1.10084 6.2878 1.20328 5.72133 1.05665C4.56829 0.757372 3.21839 1.20529 2.212 2.2116C1.2056 3.21791 0.757641 4.56769 1.05695 5.72062C1.20359 6.28705 1.10114 6.82937 0.990659 7.21302C0.974589 7.26926 0.964545 7.32951 0.964545 7.39178C0.964545 7.7473 1.2518 8.03453 1.60735 8.03453C1.67163 8.03453 1.7319 8.0265 1.78613 8.00842C2.16981 7.89795 2.71218 7.7935 3.27866 7.94214C4.43169 8.24142 5.78159 7.7935 6.78799 6.78719C7.79438 5.78088 8.24234 4.4311 7.94303 3.27817C7.79639 2.71174 7.89884 2.16942 8.00932 1.78578C8.02539 1.72954 8.03544 1.66928 8.03544 1.60701C8.03544 1.25149 7.74818 0.964258 7.39263 0.964258ZM7.39263 0.00012943C8.28051 0.00012943 8.99965 0.719209 8.99965 1.60701C8.99965 1.76167 8.97755 1.91232 8.93738 2.05493C8.84497 2.37229 8.79475 2.71576 8.87711 3.03713C9.28088 4.59581 8.65816 6.28102 7.47097 7.47012C6.28378 8.65921 4.59641 9.28187 3.0376 8.87614C2.7162 8.79379 2.37471 8.844 2.05531 8.9364C1.91269 8.97657 1.76203 8.99866 1.60735 8.99866C0.719474 8.99866 0.000332553 8.27958 0.000332553 7.39178C0.000332553 7.23712 0.0224291 7.08647 0.0626046 6.94386C0.155008 6.6265 0.205228 6.28303 0.122868 5.96166C-0.280896 4.40499 0.341824 2.71777 1.53102 1.53068C2.72022 0.3436 4.40558 -0.281075 5.96238 0.122654C6.28378 0.205007 6.62528 0.154792 6.94467 0.062396C7.0873 0.022224 7.23795 0.00012943 7.39263 0.00012943ZM4.95598 2.71174C3.91142 3.01705 3.01751 3.91088 2.71218 4.95535C2.63786 5.21044 2.36868 5.35707 2.11356 5.28275C1.85845 5.20843 1.71181 4.93928 1.78613 4.68419C2.18387 3.32436 3.32486 2.18348 4.6848 1.78578C4.93991 1.71146 5.20909 1.85809 5.28341 2.11318C5.35774 2.36827 5.2111 2.63742 4.95598 2.71174Z" fill="black"/>
</svg>
