<svg width="12" height="12" viewBox="0 0 12 12" fill="none" xmlns="http://www.w3.org/2000/svg">
<path d="M9.42003 3.67172L9.47691 3.72859C9.78155 4.03332 9.95268 4.44658 9.95268 4.87747C9.95268 5.30836 9.78155 5.72161 9.47691 6.02634L6.02947 9.47297C5.87857 9.62393 5.6994 9.74369 5.5022 9.82539C5.305 9.9071 5.09364 9.94915 4.88019 9.94915C4.66673 9.94915 4.45537 9.9071 4.25818 9.82539C4.06098 9.74369 3.88181 9.62393 3.73091 9.47297L3.67403 9.41609L3.42784 10.8087C3.40211 10.9551 3.33668 11.0917 3.2387 11.2035C3.14072 11.3153 3.01393 11.3981 2.87215 11.4429C2.73037 11.4876 2.57903 11.4926 2.43461 11.4573C2.29019 11.422 2.15822 11.3477 2.05309 11.2426L0.237969 9.42747C0.132841 9.32234 0.058574 9.19037 0.0232568 9.04595C-0.0120605 8.90153 -0.00707419 8.75019 0.0376726 8.60841C0.0824194 8.46663 0.165211 8.33984 0.277031 8.24186C0.388852 8.14388 0.525413 8.07845 0.671844 8.05272L2.06528 7.80734L2.00759 7.74965C1.85663 7.59875 1.73687 7.41958 1.65517 7.22238C1.57346 7.02519 1.53141 6.81383 1.53141 6.60037C1.53141 6.38692 1.57346 6.17556 1.65517 5.97836C1.73687 5.78116 1.85663 5.602 2.00759 5.45109L5.45422 2.00447C5.60512 1.8535 5.78429 1.73375 5.98149 1.65204C6.17868 1.57034 6.39005 1.52828 6.6035 1.52828C6.81695 1.52828 7.02832 1.57034 7.22551 1.65204C7.42271 1.73375 7.60188 1.8535 7.75278 2.00447L7.80966 2.06134L8.05584 0.671154C8.08172 0.524694 8.14729 0.388145 8.24543 0.276388C8.34357 0.164632 8.47049 0.0819551 8.61238 0.0373689C8.75427 -0.00721727 8.90567 -0.0120025 9.05009 0.0235347C9.19451 0.0590718 9.32641 0.133568 9.43141 0.238904L11.2417 2.05484C11.3463 2.16008 11.4202 2.29198 11.4552 2.43623C11.4902 2.58048 11.485 2.73156 11.4402 2.87307C11.3954 3.01459 11.3127 3.14112 11.2011 3.23895C11.0894 3.33677 10.9531 3.40214 10.807 3.42797L9.42003 3.67172ZM2.45284 6.19453H8.12978V6.22297L8.90166 5.45109C9.0517 5.3015 9.13716 5.09908 9.13972 4.88722H3.72034L2.58203 6.02634C2.53153 6.07648 2.48782 6.13302 2.45203 6.19453H2.45284ZM2.45284 7.00703C2.48778 7.06715 2.53084 7.12322 2.58203 7.17522L4.30534 8.89853C4.45771 9.05085 4.66434 9.13642 4.87978 9.13642C5.09523 9.13642 5.30185 9.05085 5.45422 8.89853L7.34653 7.00703H2.45284ZM8.67416 4.07472L7.17834 2.5789C7.02598 2.42658 6.81935 2.34102 6.60391 2.34102C6.38846 2.34102 6.18184 2.42658 6.02947 2.5789L4.53284 4.07472H8.67416ZM0.812406 8.85303L2.62753 10.6682L2.93628 8.92128C2.94532 8.8698 2.94181 8.8169 2.92605 8.76706C2.91029 8.71723 2.88274 8.67193 2.84574 8.63501C2.80874 8.5981 2.76339 8.57065 2.71352 8.55499C2.66365 8.53934 2.61074 8.53594 2.55928 8.54509L0.812406 8.85303ZM8.85616 0.812529L8.54741 2.55778C8.53841 2.60918 8.54191 2.66199 8.55763 2.71175C8.57336 2.76151 8.60083 2.80675 8.63773 2.84365C8.67462 2.88055 8.71987 2.90802 8.76962 2.92374C8.81938 2.93946 8.87219 2.94297 8.92359 2.93397L10.6664 2.62847L8.85534 0.812529H8.85616Z" fill="black"/>
</svg>
